<svg version="1.1" xmlns="http://www.w3.org/2000/svg" xmlns:xlink="http://www.w3.org/1999/xlink" width="113.67745" height="83" viewBox="0,0,113.67745,83"><defs><radialGradient cx="240.33333" cy="180" r="41.5" gradientUnits="userSpaceOnUse" id="color-1"><stop offset="0" stop-color="#4eff4e" stop-opacity="0"/><stop offset="1" stop-color="#4eff4e"/></radialGradient></defs><g transform="translate(-198.83333,-138.5)"><g data-paper-data="{&quot;isPaintingLayer&quot;:true}" fill-rule="nonzero" stroke-miterlimit="10" stroke-dasharray="" stroke-dashoffset="0" style="mix-blend-mode: normal"><path d="M198.83333,180c0,-22.91982 18.58018,-41.5 41.5,-41.5c22.91982,0 41.5,18.58018 41.5,41.5c0,22.91982 -18.58018,41.5 -41.5,41.5c-22.91982,0 -41.5,-18.58018 -41.5,-41.5z" fill="url(#color-1)" stroke="none" stroke-width="0" stroke-linecap="butt" stroke-linejoin="miter"/><path d="M239.99994,166.42099c1.96295,-4.46349 6.19948,-7.56581 11.12176,-7.56581c6.78597,0 12.29341,5.87876 12.29341,13.12219c0,14.26548 -14.44355,18.68898 -23.41517,33.16746c-9.48939,-14.56818 -23.41506,-18.43166 -23.41506,-33.16746c0,-7.24343 5.50745,-13.12219 12.29341,-13.12219c4.92228,0 9.15881,3.10232 11.12165,7.56581z" fill="none" stroke="#2f982f" stroke-width="3.72999" stroke-linecap="butt" stroke-linejoin="round"/><path d="M311.9,193.83262l0.11078,0.11078" fill="none" stroke="#2f982f" stroke-width="1" stroke-linecap="round" stroke-linejoin="miter"/></g></g></svg>