<svg version="1.1" xmlns="http://www.w3.org/2000/svg" xmlns:xlink="http://www.w3.org/1999/xlink" width="83" height="83" viewBox="0,0,83,83"><defs><radialGradient cx="240.33333" cy="180" r="41.5" gradientUnits="userSpaceOnUse" id="color-1"><stop offset="0" stop-color="#4eff4e" stop-opacity="0"/><stop offset="1" stop-color="#4eff4e"/></radialGradient></defs><g transform="translate(-198.83333,-138.5)"><g data-paper-data="{&quot;isPaintingLayer&quot;:true}" fill-rule="nonzero" stroke-linejoin="miter" stroke-miterlimit="10" stroke-dasharray="" stroke-dashoffset="0" style="mix-blend-mode: normal"><path d="M198.83333,180c0,-22.91982 18.58018,-41.5 41.5,-41.5c22.91982,0 41.5,18.58018 41.5,41.5c0,22.91982 -18.58018,41.5 -41.5,41.5c-22.91982,0 -41.5,-18.58018 -41.5,-41.5z" fill="url(#color-1)" stroke="none" stroke-width="0" stroke-linecap="butt"/><path d="M213.86667,157.8c0,0 1.96402,24.23434 6.14577,32.75868c4.46618,9.10415 19.85423,20.24132 19.85423,20.24132c0,0 15.72258,-11.00427 19.99872,-19.50172c4.38766,-8.71906 4.66795,-34.49828 4.66795,-34.49828c0,0 -9.78169,1.15149 -14.03777,-0.45145c-4.29905,-1.61912 -10.29557,-6.88188 -10.29557,-6.88188c0,0 -7.10773,6.00455 -11.42678,7.37134c-4.45453,1.40966 -14.90654,0.96199 -14.90654,0.96199z" fill="none" stroke="#267f26" stroke-width="2.5" stroke-linecap="round"/><path d="M218.86666,162.8c0,0 8.23412,0.40867 11.91313,-0.90918c3.76351,-1.34812 9.75354,-6.75749 9.75354,-6.75749c0,0 5.17696,5.24148 8.21297,6.47646c3.46316,1.40874 11.4537,0.52354 11.4537,0.52354c0,0 -0.29619,18.88442 -3.83515,26.25241c-3.20583,6.67444 -16.49819,17.08092 -16.49819,17.08092c0,0 -11.62451,-8.83559 -15.50444,-16.41636c-3.2176,-6.28669 -5.49556,-26.2503 -5.49556,-26.2503z" fill="none" stroke="#2f982f" stroke-width="2.5" stroke-linecap="round"/></g></g></svg>