<svg version="1.1" xmlns="http://www.w3.org/2000/svg" xmlns:xlink="http://www.w3.org/1999/xlink" width="83" height="83" viewBox="0,0,83,83"><defs><radialGradient cx="240.33334" cy="180" r="41.5" gradientUnits="userSpaceOnUse" id="color-1"><stop offset="0" stop-color="#4eff4e" stop-opacity="0"/><stop offset="1" stop-color="#4eff4e"/></radialGradient><radialGradient cx="240.5" cy="179.5" r="19.75" gradientUnits="userSpaceOnUse" id="color-2"><stop offset="0" stop-color="#7342ff" stop-opacity="0"/><stop offset="1" stop-color="#7342ff"/></radialGradient><radialGradient cx="240" cy="190.5" r="19.75" gradientUnits="userSpaceOnUse" id="color-3"><stop offset="0" stop-color="#7342ff" stop-opacity="0"/><stop offset="1" stop-color="#7342ff"/></radialGradient><radialGradient cx="240.5" cy="200" r="19.75" gradientUnits="userSpaceOnUse" id="color-4"><stop offset="0" stop-color="#7342ff" stop-opacity="0"/><stop offset="1" stop-color="#7342ff"/></radialGradient></defs><g transform="translate(-198.83333,-138.5)"><g data-paper-data="{&quot;isPaintingLayer&quot;:true}" fill-rule="nonzero" stroke-linecap="butt" stroke-linejoin="miter" stroke-miterlimit="10" stroke-dasharray="" stroke-dashoffset="0" style="mix-blend-mode: normal"><path d="M198.83334,180c0,-22.91982 18.58018,-41.5 41.5,-41.5c22.91982,0 41.5,18.58018 41.5,41.5c0,22.91982 -18.58018,41.5 -41.5,41.5c-22.91982,0 -41.5,-18.58018 -41.5,-41.5z" fill="url(#color-1)" stroke="none" stroke-width="0"/><path d="M212.56928,179.5l27.93072,-27.93072l27.93072,27.93072l-28.43072,-28.06928z" fill="url(#color-2)" stroke="#2f982f" stroke-width="2.5"/><path d="M212.06928,190.5l27.93072,-27.93072l27.93072,27.93072l-28.43072,-28.06928z" fill="url(#color-3)" stroke="#2f982f" stroke-width="2.5"/><path d="M212.56928,200l27.93072,-27.93072l27.93072,27.93072l-28.43072,-28.06928z" fill="url(#color-4)" stroke="#2f982f" stroke-width="2.5"/></g></g></svg>